<?xml version="1.0" encoding="UTF-8"?>
<svg id="Capa_1" data-name="Capa 1" xmlns="http://www.w3.org/2000/svg" viewBox="0 0 128.01 127.99">
  <defs>
    <style>
      .cls-1 {
        fill: #deaeac;
      }

      .cls-1, .cls-2, .cls-3 {
        stroke-width: 0px;
      }

      .cls-2 {
        fill: #6da5d5;
      }

      .cls-3 {
        fill: #fff;
      }
    </style>
  </defs>
  <rect class="cls-3" x="-896" y="-228.93" width="1920" height="1246.98"/>
  <g>
    <path class="cls-2" d="M116.78,42.36l-23.38-10.75c-.42-.19-.87-.29-1.34-.29-1.25,0-2.4.74-2.93,1.88-.74,1.6-.03,3.53,1.59,4.27l14.09,6.48c.51.23.84.76.84,1.33s-.34,1.08-.86,1.33l-40.19,18.27c-.19.07-.39.12-.6.12s-.41-.04-.6-.12l-40.19-18.27c-.52-.25-.86-.76-.86-1.33s.34-1.09.84-1.33l14.1-6.48c1.6-.74,2.32-2.67,1.57-4.27-.52-1.14-1.68-1.88-2.94-1.88-.45,0-.9.1-1.34.29l-23.36,10.75c-1.14.52-1.88,1.68-1.88,2.93v56.11c0,1.25.74,2.4,1.89,2.93l51.43,23.38c.42.19.86.29,1.33.29s.9-.1,1.33-.29l51.43-23.38c1.15-.52,1.89-1.68,1.89-2.93v-56.11c0-1.25-.74-2.4-1.88-2.93ZM60.79,117.51c0,.5-.25.96-.67,1.22-.23.16-.51.23-.79.23-.2,0-.41-.04-.6-.13l-42.08-19.13c-.52-.23-.86-.76-.86-1.33v-45.83c0-.5.26-.96.67-1.22.25-.16.51-.23.79-.23.2,0,.41.04.61.13l42.07,19.13c.52.23.86.74.86,1.33v45.83ZM112.22,98.38c0,.57-.33,1.09-.86,1.33l-42.08,19.13c-.19.09-.39.13-.6.13-.28,0-.55-.07-.79-.23-.42-.26-.67-.73-.67-1.22v-45.83c0-.58.33-1.09.86-1.33l42.07-19.13c.2-.09.41-.13.61-.13.28,0,.54.07.79.23.41.26.67.73.67,1.22v45.83Z"/>
    <path class="cls-1" d="M87.17,21.04c.76-.79,1.02-1.92.67-2.96-.34-1.04-1.24-1.77-2.31-1.94l-12.34-1.88c-.43-.07-.81-.35-1-.75l-5.56-11.84c-.47-1.02-1.51-1.67-2.63-1.67s-2.15.64-2.63,1.67l-5.56,11.84c-.18.39-.57.68-1,.75l-12.34,1.88c-1.08.17-1.97.91-2.31,1.94-.35,1.04-.09,2.17.67,2.96l9.05,9.28c.29.3.42.72.35,1.13l-2.14,13.17c-.18,1.09.29,2.19,1.2,2.84.49.34,1.06.53,1.67.53.49,0,.97-.12,1.41-.35l11-6.08c.2-.11.41-.16.63-.16s.43.05.63.16l11,6.08c.43.24.92.35,1.41.35h.08c1.6,0,2.9-1.3,2.9-2.9,0-.35-.05-.7-.18-1.02-.03-.09-.05-.17-.07-.25l-2.01-12.35c-.07-.41.07-.83.35-1.13l9.05-9.28ZM77.28,22.85l-4.81,4.94c-.64.66-.93,1.59-.79,2.48l1.09,6.7c.09.49-.12.99-.54,1.27-.22.17-.49.25-.75.25-.22,0-.45-.05-.64-.17l-5.43-3c-.43-.24-.92-.37-1.41-.37s-.97.13-1.41.37l-5.43,3c-.2.12-.42.17-.64.17-.26,0-.53-.08-.75-.25-.42-.29-.63-.79-.54-1.27l1.09-6.7c.14-.89-.14-1.83-.79-2.48l-4.81-4.94c-.35-.34-.47-.87-.32-1.33.16-.47.57-.81,1.05-.88l6.45-.99c.96-.16,1.79-.76,2.19-1.64l2.69-5.74c.22-.47.68-.76,1.2-.76s.97.29,1.2.76l2.69,5.74c.41.88,1.24,1.48,2.19,1.64l6.45.99c.49.07.89.41,1.05.88.16.46.04.99-.32,1.33Z"/>
    <path class="cls-1" d="M25.14,12.56c0,1.78-1.44,3.22-3.22,3.22h-4.68c-.8,0-1.46.66-1.46,1.46v4.68c0,1.78-1.44,3.22-3.22,3.22s-3.22-1.44-3.22-3.22v-4.68c0-.8-.64-1.46-1.46-1.46H3.22c-1.76,0-3.22-1.44-3.22-3.22s1.46-3.22,3.22-3.22h4.68c.82,0,1.46-.64,1.46-1.46V3.2c0-1.76,1.44-3.2,3.22-3.2s3.22,1.44,3.22,3.2v4.68c0,.82.66,1.46,1.46,1.46h4.68c1.78,0,3.22,1.46,3.22,3.22Z"/>
    <path class="cls-1" d="M128.01,12.56c0,1.78-1.46,3.22-3.22,3.22h-4.68c-.82,0-1.46.66-1.46,1.46v4.68c0,1.78-1.44,3.22-3.22,3.22s-3.22-1.44-3.22-3.22v-4.68c0-.8-.66-1.46-1.46-1.46h-4.68c-1.78,0-3.22-1.44-3.22-3.22s1.44-3.22,3.22-3.22h4.68c.8,0,1.46-.64,1.46-1.46V3.2c0-1.76,1.44-3.2,3.22-3.2s3.22,1.44,3.22,3.2v4.68c0,.82.64,1.46,1.46,1.46h4.68c1.76,0,3.22,1.46,3.22,3.22Z"/>
  </g>
</svg>