<?xml version="1.0" encoding="UTF-8"?>
<svg id="Capa_1" data-name="Capa 1" xmlns="http://www.w3.org/2000/svg" viewBox="0 0 38.1 38.1">
  <defs>
    <style>
      .cls-1 {
        fill: #deaeac;
        stroke-width: 0px;
      }
    </style>
  </defs>
  <path class="cls-1" d="M37.67.9c-.42-.58-1.09-.9-1.89-.9-.38,0-.78.07-1.2.21L2.18,11.01c-1.12.37-1.89,1.14-2.12,2.09-.23.96.12,1.98.96,2.82.08.08.18.15.28.2l13.64,7.03,7.03,13.64c.05.1.12.2.2.28.67.67,1.44,1.02,2.24,1.03h0c1.2,0,2.22-.84,2.67-2.18L37.89,3.51c.34-1.02.26-1.95-.22-2.61h0ZM2.24,13.62c.04-.18.29-.37.65-.49L33.65,2.88,15.56,20.96,2.5,14.23c-.2-.23-.29-.46-.26-.61h0ZM24.97,35.21c-.11.32-.31.66-.56.66-.15,0-.35-.1-.54-.27l-6.73-13.06L35.22,4.46l-10.25,30.76Z"/>
</svg>