<?xml version="1.0" encoding="UTF-8"?>
<svg id="Capa_1" data-name="Capa 1" xmlns="http://www.w3.org/2000/svg" viewBox="0 0 26.55 26.55">
  <defs>
    <style>
      .cls-1 {
        fill: #6da5d5;
      }

      .cls-1, .cls-2 {
        stroke-width: 0px;
      }

      .cls-2 {
        fill: #fff;
      }
    </style>
  </defs>
  <circle class="cls-1" cx="13.28" cy="13.28" r="13.28"/>
  <path class="cls-2" d="M8.7,16.91l3.1-3.72-2.87-3.41c-.27-.33-.41-.62-.41-.95,0-.7.54-1.16,1.16-1.16.5,0,.85.23,1.16.62l2.46,3.22,2.5-3.2c.29-.37.64-.64,1.07-.64.66,0,1.18.48,1.18,1.09,0,.35-.14.6-.35.85l-2.95,3.53,3.06,3.62c.27.33.41.62.41.95,0,.7-.54,1.16-1.16,1.16-.5,0-.85-.23-1.16-.64l-2.64-3.41-2.64,3.41c-.29.35-.64.64-1.09.64-.64,0-1.16-.48-1.16-1.09,0-.35.12-.62.35-.87Z"/>
</svg>