<?xml version="1.0" encoding="UTF-8"?>
<svg id="Capa_1" data-name="Capa 1" xmlns="http://www.w3.org/2000/svg" viewBox="0 0 60.68 60.68">
  <defs>
    <style>
      .cls-1 {
        fill: #fff;
        stroke-width: 0px;
      }
    </style>
  </defs>
  <circle class="cls-1" cx="30.34" cy="30.34" r="6.37" transform="translate(-9.3 46.76) rotate(-67.5)"/>
  <path class="cls-1" d="M45.23,19.07c-.35-.89-.76-1.53-1.43-2.2-.67-.67-1.3-1.08-2.2-1.43-.67-.26-1.68-.57-3.55-.66-2.01-.09-2.62-.11-7.72-.11s-5.71.02-7.72.11c-1.86.09-2.87.4-3.55.66-.89.35-1.53.76-2.2,1.43-.67.67-1.08,1.3-1.43,2.2-.26.67-.57,1.68-.66,3.55-.09,2.01-.11,2.62-.11,7.72s.02,5.71.11,7.72c.09,1.86.4,2.87.66,3.55.35.89.76,1.53,1.43,2.2.67.67,1.3,1.08,2.2,1.43.67.26,1.68.57,3.55.66,2.01.09,2.62.11,7.72.11s5.71-.02,7.72-.11c1.86-.08,2.87-.4,3.55-.66.89-.35,1.53-.76,2.2-1.43.67-.67,1.08-1.3,1.43-2.2.26-.67.57-1.68.66-3.55.09-2.01.11-2.62.11-7.72s-.02-5.71-.11-7.72c-.09-1.86-.4-2.87-.66-3.55ZM30.34,40.15c-5.42,0-9.81-4.39-9.81-9.81s4.39-9.81,9.81-9.81,9.81,4.39,9.81,9.81-4.39,9.81-9.81,9.81ZM40.54,22.44c-1.27,0-2.29-1.03-2.29-2.29s1.03-2.29,2.29-2.29,2.29,1.03,2.29,2.29-1.03,2.29-2.29,2.29Z"/>
  <path class="cls-1" d="M30.34,0C13.58,0,0,13.58,0,30.34s13.58,30.34,30.34,30.34,30.34-13.58,30.34-30.34S47.1,0,30.34,0ZM49.33,38.22c-.09,2.03-.42,3.42-.89,4.64-.49,1.26-1.14,2.32-2.2,3.38-1.06,1.06-2.13,1.72-3.38,2.2-1.21.47-2.6.8-4.64.89-2.04.09-2.69.12-7.88.12s-5.84-.02-7.88-.12c-2.03-.09-3.42-.42-4.64-.89-1.26-.49-2.32-1.14-3.38-2.2-1.06-1.06-1.72-2.13-2.2-3.38-.47-1.22-.8-2.6-.89-4.64-.09-2.04-.12-2.69-.12-7.88s.02-5.84.12-7.88c.09-2.03.42-3.42.89-4.64.49-1.26,1.14-2.32,2.2-3.38s2.13-1.72,3.38-2.2c1.22-.47,2.6-.8,4.64-.89,2.04-.09,2.69-.12,7.88-.12s5.84.02,7.88.12c2.03.09,3.42.42,4.64.89,1.26.49,2.32,1.14,3.38,2.2,1.06,1.06,1.72,2.13,2.2,3.38.47,1.22.8,2.6.89,4.64.09,2.04.12,2.69.12,7.88s-.02,5.84-.12,7.88Z"/>
</svg>