<?xml version="1.0" encoding="UTF-8"?>
<svg id="Capa_1" data-name="Capa 1" xmlns="http://www.w3.org/2000/svg" viewBox="0 0 82.25 70.11">
  <defs>
    <style>
      .cls-1 {
        fill: #fff;
        stroke-width: 0px;
      }
    </style>
  </defs>
  <path class="cls-1" d="M4.8,27.1c.34-.37.89-.46,1.34-.21,6,3.34,12.3,6,18.9,7.94,6.46,1.9,13.04,2.99,19.77,3.07,6.44.08,12.75-.76,18.92-2.66,4.34-1.33,8.49-3.08,12.44-5.32,1.49-.84,2.99-.95,4.39.03,1.27.89,1.89,2.46,1.65,3.99-1.39,8.73-4.7,16.65-10.33,23.46-5.75,6.97-13.11,11.35-22.17,12.44-10.68,1.29-19.83-2.16-27.52-9.53-5-4.8-8.37-10.59-10.65-17-.35-.98-1.39-5.37,2.07-5.37,1.41,0,2.64,1.03,3.67,2.01,1.71,1.64,2.83,3.72,3.06,4.22,1.36,2.93,3.01,5.7,5.11,8.19,4.61,5.45,10.35,9.04,17.58,9.7,10.51.97,18.48-3.53,24.49-11.9,2.09-2.91,3.68-6.1,4.94-9.64-.44.15-.76.25-1.07.37-6.55,2.59-13.33,4.15-20.35,4.69-6.67.52-13.25.07-19.7-1.82-10.04-2.95-18.74-8.2-26.47-15.12-.45-.4-.48-1.1-.07-1.55h0Z"/>
  <path class="cls-1" d="M2.17,26.76c.66-1.63,1.14-2.02,3.38-3.29.46-.26.27-.98-.27-.96-1.69.08-3.64,1.3-4.59,3.07-.92,1.71-.89,3.97-.04,5.4.24.4.86.21.84-.26-.1-2.2.69-3.96.69-3.96Z"/>
  <path class="cls-1" d="M80.59,12.33c.88,1.64,2.06,4.95-1.02,6.25-2.43,1.03-4.85-1.18-6.53-3.85-3.42-6.73-11.84-8.9-18.07-4.65-5.48,3.74-13.1,3.65-18.59-.05-7.25-4.88-17.09-1.01-18.97,7.58-.46,2.08-.77,4.17-.92,6.27,0,.02,0,.03,0,.05-.17,2.65-2.88,4.19-5.34,3.45-1.95-.59-2.74-2.48-2.49-4.95.15-1.35.17-1.28.34-2.63.27-2.14.65-4.26,1.43-6.28C13.52,5.48,19.39.95,27.95.1c4.7-.47,9.01.82,12.92,3.46,2.86,1.93,6.99,1.89,9.86-.09,8.44-5.82,20.32-4.12,26.81,3.84,1.23,1.5,2.27,3.11,3.05,5.02Z"/>
</svg>