<?xml version="1.0" encoding="UTF-8"?> <svg xmlns="http://www.w3.org/2000/svg" xmlns:xlink="http://www.w3.org/1999/xlink" version="1.1" id="Capa_1" x="0px" y="0px" viewBox="0 0 1366 768" style="enable-background:new 0 0 1366 768;" xml:space="preserve"> <style type="text/css"> .st0{fill:#EDC0C0;} .st1{fill:#6DB2E2;} .st2{fill:#60534F;} </style> <path class="st0" d="M467.81,458.06c-16.38,0-31.03-2.91-43.96-8.73c-12.93-5.82-23.11-14.59-30.55-26.34 c-4.27-6.74-7.31-14.45-9.12-23.14c-0.58-2.76-1.03-8.23-1.36-13.6c-0.47-7.68,5.64-14.17,13.34-14.17 c7.08,0,12.94,5.52,13.34,12.59c0.22,3.82,0.5,7.48,0.86,9.27c2.26,11.35,7.3,20.28,15.1,26.79c10.99,9.16,25.1,13.74,42.34,13.74 c17.66,0,31.13-3.98,40.4-11.96c9.26-7.97,13.9-17.99,13.9-30.06c0-8.4-2.1-15.08-6.3-20.04c-4.2-4.95-10.07-8.99-17.61-12.12 c-7.55-3.12-16.38-5.87-26.5-8.24l-16.81-4.2c-13.14-3.44-24.78-7.65-34.91-12.6c-10.13-4.96-18.05-11.47-23.76-19.55 c-5.71-8.08-8.57-18.47-8.57-31.19c0-12.71,3.18-23.7,9.54-32.97c6.35-9.26,15.3-16.37,26.83-21.33 c11.52-4.95,24.83-7.43,39.92-7.43c15.3,0,29.03,2.64,41.21,7.92c12.17,5.28,21.76,13.04,28.77,23.27 c7,10.24,10.51,23.11,10.51,38.62v0.16c0,7.41-6.01,13.41-13.41,13.41c-7.41,0-13.41-6.01-13.41-13.41v-0.16 c0-10.99-2.32-19.82-6.95-26.5c-4.64-6.68-10.99-11.64-19.07-14.87c-8.08-3.23-17.29-4.85-27.64-4.85 c-14.87,0-26.83,3.29-35.88,9.86c-9.05,6.58-13.57,15.89-13.57,27.96c0,7.97,1.94,14.44,5.82,19.39c3.88,4.96,9.37,9,16.48,12.12 c7.11,3.13,15.62,5.87,25.53,8.24l16.81,4.2c13.14,2.8,24.94,6.63,35.39,11.48c10.45,4.85,18.8,11.42,25.05,19.72 c6.25,8.3,9.37,19.13,9.37,32.48c0,13.36-3.34,25-10.02,34.91c-6.68,9.91-16.11,17.62-28.28,23.11 C498.46,455.31,484.18,458.06,467.81,458.06"></path> <path class="st0" d="M656.57,458.06c-15.95,0-30.01-3.34-42.18-10.02c-12.18-6.68-21.66-16.1-28.44-28.28 c-6.79-12.17-10.18-26.55-10.18-43.15v-4.2c0-16.37,3.39-30.71,10.18-42.99c6.79-12.28,16.27-21.76,28.44-28.44 c12.17-6.68,26.23-10.02,42.18-10.02c15.94,0,30,3.34,42.18,10.02c12.17,6.68,21.65,16.16,28.44,28.44 c6.79,12.28,10.18,26.61,10.18,42.99v4.2c0,16.59-3.39,30.98-10.18,43.15c-6.79,12.18-16.27,21.6-28.44,28.28 C686.57,454.72,672.51,458.06,656.57,458.06 M656.57,435.11c16.81,0,30.22-5.33,40.24-16c10.02-10.67,15.03-25.05,15.03-43.15v-2.91 c0-18.1-5.01-32.48-15.03-43.15c-10.02-10.67-23.43-16-40.24-16c-16.6,0-29.95,5.33-40.08,16c-10.13,10.67-15.19,25.05-15.19,43.15 v2.91c0,18.1,5.06,32.48,15.19,43.15C626.61,429.78,639.97,435.11,656.57,435.11"></path> <path class="st0" d="M775.18,440.77V307.93c0-6.87,5.57-12.44,12.44-12.44c6.87,0,12.44,5.57,12.44,12.44v14.38h4.53 c3.44-7.54,9.32-14.38,17.61-20.52c8.29-6.14,20.52-9.21,36.68-9.21c11.85,0,22.47,2.48,31.84,7.43 c9.37,4.96,16.86,12.28,22.46,21.98c5.6,9.7,8.4,21.66,8.4,35.88v82.9c0,7.05-5.72,12.77-12.77,12.77 c-7.05,0-12.77-5.72-12.77-12.77V359.8c0-15.73-3.93-27.15-11.8-34.26c-7.87-7.11-18.48-10.67-31.84-10.67 c-15.3,0-27.75,4.96-37.33,14.87c-9.59,9.91-14.38,24.68-14.38,44.28v66.74c0,7.05-5.72,12.77-12.77,12.77 S775.18,447.82,775.18,440.77"></path> <path class="st0" d="M965.23,440.77V307.93c0-6.87,5.57-12.44,12.44-12.44c6.87,0,12.44,5.57,12.44,12.44v6.95h4.53 c2.8-6.89,7.11-11.96,12.93-15.19c5.82-3.23,13.46-4.85,22.95-4.85h7.11c6.43,0,11.64,5.21,11.64,11.64 c0,6.43-5.21,11.64-11.64,11.64h-8.73c-11.42,0-20.64,3.18-27.64,9.53c-7,6.36-10.5,16.22-10.5,29.57v83.55 c0,7.05-5.72,12.77-12.77,12.77C970.95,453.54,965.23,447.82,965.23,440.77"></path> <path class="st0" d="M1084.09,257.74l12.43-21.96c1.95-3.45,5.61-5.58,9.57-5.58h3.07c8.92,0,14.13,10.05,8.99,17.34l-15.5,21.96 c-2.06,2.92-5.41,4.66-8.99,4.66C1085.24,274.15,1079.94,265.07,1084.09,257.74 M1079,440.77V308.25c0-7.05,5.72-12.77,12.77-12.77 s12.77,5.72,12.77,12.77v132.52c0,7.05-5.71,12.77-12.77,12.77S1079,447.82,1079,440.77"></path> <path class="st0" d="M1222.51,458.06c-15.95,0-29.95-3.39-42.02-10.18c-12.07-6.79-21.44-16.32-28.12-28.61 c-6.68-12.28-10.02-26.5-10.02-42.66v-3.88c0-16.37,3.34-30.71,10.02-42.99c6.68-12.28,15.95-21.82,27.8-28.6 c11.85-6.79,25.42-10.18,40.72-10.18c14.87,0,28.01,3.18,39.43,9.53c11.42,6.36,20.36,15.46,26.83,27.31 c6.47,11.85,9.7,25.75,9.7,41.7v11.64h-128.96c0.65,17.02,6.14,30.33,16.48,39.92c10.34,9.59,23.27,14.38,38.78,14.38 c13.57,0,24.02-3.12,31.35-9.37c4.63-3.95,8.58-8.38,11.84-13.29c3.3-4.97,9.82-6.66,15.19-4.05c6.63,3.22,8.9,11.62,4.66,17.64 c-1.91,2.7-4.01,5.4-6.32,8.1c-5.71,6.68-13.15,12.28-22.3,16.81C1248.41,455.8,1236.73,458.06,1222.51,458.06 M1168.21,360.13 h102.78c-0.86-14.65-5.88-26.07-15.03-34.26c-9.16-8.18-20.85-12.28-35.07-12.28c-14.44,0-26.29,4.1-35.55,12.28 C1176.07,334.06,1170.36,345.48,1168.21,360.13"></path> <path class="st1" d="M85.95,313.54c1.15-1.25,3.01-1.54,4.5-0.71c20.2,11.24,41.4,20.2,63.61,26.74 c21.73,6.4,43.9,10.06,66.55,10.34c21.66,0.27,42.92-2.57,63.68-8.95c14.6-4.48,28.59-10.37,41.87-17.9 c5-2.84,10.06-3.19,14.78,0.09c4.28,2.98,6.36,8.28,5.54,13.43c-4.69,29.39-15.83,56.03-34.77,78.96 c-19.37,23.45-44.14,38.19-74.61,41.88c-35.94,4.35-66.74-7.26-92.63-32.06c-16.84-16.14-28.17-35.65-35.85-57.22 c-1.17-3.3-4.67-18.09,6.98-18.09c4.75,0,8.88,3.48,12.35,6.78c5.77,5.5,9.53,12.53,10.31,14.2c4.59,9.87,10.13,19.2,17.21,27.56 c15.53,18.35,34.84,30.42,59.17,32.65c35.39,3.25,62.19-11.88,82.43-40.04c7.04-9.8,12.4-20.52,16.63-32.44 c-1.47,0.51-2.55,0.83-3.59,1.24c-22.03,8.72-44.86,13.96-68.48,15.78c-22.46,1.73-44.61,0.25-66.32-6.12 c-33.81-9.92-63.09-27.6-89.11-50.91C84.66,317.39,84.57,315.04,85.95,313.54"></path> <path class="st1" d="M77.09,312.39c2.22-5.49,3.85-6.8,11.37-11.07c1.56-0.89,0.89-3.31-0.91-3.23 c-5.67,0.27-12.25,4.36-15.46,10.32c-3.1,5.75-3,13.38-0.15,18.17c0.81,1.36,2.91,0.72,2.83-0.86 C74.43,318.3,77.09,312.39,77.09,312.39"></path> <path class="st1" d="M341.05,263.81c2.95,5.51,6.92,16.65-3.42,21.02c-8.2,3.47-16.32-3.98-21.96-12.96 c-11.51-22.66-39.87-29.96-60.83-15.65c-18.45,12.6-44.09,12.29-62.58-0.18c-24.39-16.44-57.51-3.39-63.85,25.53 c-1.54,7-2.6,14.03-3.08,21.11c0,0.05-0.01,0.1-0.01,0.15c-0.58,8.91-9.7,14.1-17.99,11.6c-6.58-1.99-9.22-8.34-8.39-16.68 c0.5-4.53,0.57-4.32,1.14-8.84c0.9-7.2,2.2-14.32,4.83-21.15c10.39-27,30.14-42.25,58.97-45.14c15.83-1.59,30.33,2.77,43.49,11.64 c9.63,6.49,23.52,6.37,33.19-0.3c28.4-19.6,68.39-13.85,90.25,12.93C334.92,251.96,338.42,257.36,341.05,263.81"></path> <path class="st2" d="M742.44,534.67v-56.21h18.19c0.44,0,1.35,0.01,2.73,0.04c1.38,0.03,2.71,0.12,3.98,0.27 c4.53,0.55,8.36,2.12,11.52,4.72c3.15,2.6,5.54,5.91,7.18,9.92c1.64,4.01,2.46,8.39,2.46,13.16c0,4.76-0.82,9.15-2.46,13.15 c-1.64,4.01-4.03,7.31-7.18,9.91c-3.15,2.6-6.99,4.18-11.52,4.72c-1.28,0.16-2.6,0.25-3.98,0.27c-1.38,0.03-2.29,0.04-2.73,0.04 H742.44z M753.21,524.68h7.42c0.7,0,1.65-0.02,2.85-0.06c1.2-0.04,2.28-0.15,3.24-0.33c2.44-0.49,4.44-1.64,5.99-3.43 c1.55-1.8,2.69-3.95,3.44-6.48c0.74-2.52,1.11-5.13,1.11-7.81c0-2.81-0.38-5.48-1.15-8c-0.77-2.53-1.93-4.66-3.49-6.4 c-1.56-1.74-3.53-2.85-5.89-3.32c-0.96-0.21-2.04-0.33-3.24-0.35c-1.2-0.03-2.15-0.04-2.85-0.04h-7.42V524.68z"></path> <path class="st2" d="M821.37,535.84c-4.32,0-8.13-0.93-11.42-2.79c-3.29-1.86-5.87-4.42-7.73-7.69c-1.86-3.27-2.79-7.01-2.79-11.22 c0-4.61,0.91-8.61,2.73-12.02c1.82-3.41,4.33-6.06,7.53-7.95c3.2-1.89,6.89-2.83,11.05-2.83c4.42,0,8.18,1.04,11.28,3.12 c3.09,2.08,5.39,5.01,6.87,8.78c1.48,3.77,2,8.21,1.56,13.31h-10.5v-3.9c0-4.29-0.68-7.38-2.05-9.27c-1.36-1.89-3.6-2.83-6.69-2.83 c-3.62,0-6.28,1.1-7.98,3.3c-1.7,2.2-2.56,5.45-2.56,9.74c0,3.93,0.85,6.97,2.56,9.11c1.7,2.15,4.21,3.22,7.52,3.22 c2.08,0,3.86-0.46,5.35-1.37c1.48-0.91,2.61-2.23,3.4-3.94l10.62,3.05c-1.59,3.85-4.09,6.84-7.51,8.98 C829.17,534.77,825.43,535.84,821.37,535.84 M807.4,508.67h27.95v7.89H807.4V508.67z"></path> <path class="st2" d="M851.9,534.67v-42.16h9.45v13.97h1.33v28.18H851.9z M880.71,534.67v-19.91c0-0.96-0.05-2.19-0.16-3.69 c-0.1-1.5-0.43-3-0.98-4.51c-0.55-1.51-1.44-2.77-2.67-3.79c-1.24-1.01-2.99-1.52-5.25-1.52c-0.91,0-1.89,0.14-2.93,0.43 c-1.04,0.29-2.02,0.84-2.93,1.66c-0.91,0.82-1.66,2.02-2.24,3.61c-0.59,1.59-0.88,3.7-0.88,6.32l-6.09-2.89 c0-3.33,0.68-6.45,2.03-9.37c1.35-2.91,3.39-5.27,6.11-7.07c2.72-1.8,6.15-2.69,10.28-2.69c3.3,0,6,0.56,8.08,1.68 c2.08,1.12,3.7,2.54,4.86,4.25c1.16,1.72,1.98,3.51,2.48,5.37s0.8,3.56,0.9,5.09c0.1,1.54,0.16,2.66,0.16,3.36v23.66H880.71z"></path> <path class="st2" d="M900.85,492.51h29.98v8.2h-29.98V492.51z M930.83,534.67c-2.91,0.55-5.77,0.79-8.57,0.72 c-2.8-0.07-5.3-0.56-7.5-1.48c-2.2-0.92-3.87-2.41-5.02-4.47c-1.04-1.92-1.59-3.88-1.64-5.88c-0.05-1.99-0.08-4.25-0.08-6.77V480.8 h10.62v35.37c0,1.64,0.02,3.12,0.06,4.43c0.04,1.31,0.31,2.36,0.8,3.14c0.94,1.48,2.43,2.29,4.49,2.42 c2.06,0.13,4.33,0.03,6.83-0.31V534.67z"></path> <path class="st2" d="M955.81,535.84c-3.02,0-5.58-0.58-7.67-1.74c-2.09-1.16-3.68-2.71-4.76-4.65c-1.08-1.94-1.62-4.08-1.62-6.42 c0-1.95,0.3-3.74,0.9-5.35c0.6-1.61,1.57-3.04,2.91-4.27c1.34-1.24,3.14-2.27,5.41-3.1c1.56-0.57,3.42-1.08,5.58-1.52 c2.16-0.44,4.61-0.86,7.34-1.27c2.73-0.4,5.74-0.85,9.02-1.35l-3.82,2.11c0-2.5-0.6-4.33-1.8-5.5c-1.2-1.17-3.2-1.76-6.01-1.76 c-1.56,0-3.19,0.38-4.88,1.13c-1.69,0.76-2.88,2.09-3.55,4.02l-9.6-3.04c1.07-3.49,3.07-6.33,6.01-8.51 c2.94-2.19,6.95-3.28,12.02-3.28c3.72,0,7.03,0.57,9.92,1.72c2.89,1.15,5.07,3.12,6.56,5.93c0.83,1.56,1.33,3.12,1.48,4.68 c0.16,1.56,0.23,3.3,0.23,5.23v25.76h-9.29V526l1.33,1.79c-2.06,2.84-4.28,4.89-6.66,6.15 C962.47,535.21,959.45,535.84,955.81,535.84 M958.07,527.49c1.95,0,3.6-0.34,4.94-1.03c1.34-0.69,2.41-1.48,3.2-2.36 c0.79-0.88,1.33-1.63,1.62-2.23c0.55-1.15,0.87-2.48,0.96-4c0.09-1.52,0.14-2.79,0.14-3.81l3.12,0.78c-3.15,0.52-5.7,0.96-7.65,1.31 c-1.95,0.35-3.53,0.67-4.72,0.96c-1.2,0.29-2.25,0.6-3.16,0.94c-1.04,0.42-1.88,0.86-2.52,1.35c-0.64,0.48-1.11,1.01-1.41,1.58 c-0.3,0.57-0.45,1.21-0.45,1.91c0,0.96,0.24,1.79,0.72,2.48c0.48,0.69,1.16,1.22,2.05,1.58C955.8,527.3,956.85,527.49,958.07,527.49 "></path> <rect x="994.3" y="477.28" class="st2" width="10.62" height="57.39"></rect> <path class="st2" d="M1063.48,535.84c-3.54,0-6.91-0.63-10.11-1.89c-3.2-1.26-6.03-3.13-8.49-5.6c-2.46-2.47-4.4-5.53-5.82-9.17 c-1.42-3.64-2.13-7.85-2.13-12.61c0-6.22,1.19-11.51,3.57-15.87c2.38-4.36,5.58-7.68,9.6-9.97c4.02-2.29,8.48-3.44,13.37-3.44 c7.23,0,12.92,1.68,17.06,5.04c4.14,3.36,6.91,8.11,8.31,14.25l-10.85,1.56c-1.02-3.28-2.67-5.9-4.98-7.87 c-2.3-1.96-5.25-2.96-8.84-2.99c-3.56-0.05-6.53,0.72-8.9,2.3c-2.37,1.59-4.15,3.84-5.33,6.75c-1.18,2.92-1.78,6.32-1.78,10.23 c0,3.9,0.59,7.29,1.78,10.15c1.18,2.86,2.96,5.09,5.33,6.68c2.37,1.59,5.34,2.41,8.9,2.46c2.42,0.05,4.61-0.36,6.58-1.25 c1.96-0.89,3.63-2.28,4.98-4.18c1.35-1.9,2.31-4.33,2.89-7.3h-8.9v-8.2h20.22c0.05,0.34,0.09,0.94,0.12,1.8 c0.02,0.86,0.04,1.35,0.04,1.48c0,5.39-1.09,10.16-3.28,14.33c-2.19,4.16-5.27,7.42-9.25,9.78 C1073.58,534.66,1068.89,535.84,1063.48,535.84"></path> <path class="st2" d="M1101.81,534.67v-42.16h9.37v10.31l-1.02-1.33c0.55-1.46,1.28-2.78,2.19-3.98c0.91-1.2,2.03-2.19,3.36-2.97 c1.02-0.63,2.12-1.11,3.32-1.46c1.2-0.35,2.43-0.57,3.71-0.66c1.28-0.09,2.55-0.06,3.83,0.1v9.91c-1.17-0.36-2.53-0.49-4.08-0.37 s-2.95,0.47-4.2,1.07c-1.25,0.57-2.3,1.33-3.16,2.28c-0.86,0.95-1.51,2.07-1.95,3.36c-0.44,1.29-0.66,2.74-0.66,4.35v21.55H1101.81z "></path> <path class="st2" d="M1156.07,535.84c-4.24,0-7.97-0.95-11.17-2.85c-3.2-1.9-5.69-4.52-7.48-7.87c-1.78-3.34-2.67-7.19-2.67-11.54 c0-4.4,0.91-8.27,2.73-11.61c1.82-3.34,4.33-5.95,7.53-7.83c3.2-1.87,6.89-2.81,11.05-2.81c4.24,0,7.97,0.95,11.18,2.85 c3.21,1.9,5.72,4.52,7.51,7.87c1.8,3.34,2.7,7.19,2.7,11.53c0,4.37-0.91,8.23-2.71,11.57c-1.81,3.34-4.32,5.96-7.53,7.85 C1164,534.9,1160.29,535.84,1156.07,535.84 M1156.07,525.92c3.41,0,5.95-1.15,7.63-3.45c1.68-2.3,2.52-5.26,2.52-8.88 c0-3.75-0.85-6.74-2.56-8.98c-1.7-2.24-4.23-3.36-7.59-3.36c-2.32,0-4.22,0.52-5.7,1.56c-1.48,1.04-2.58,2.48-3.3,4.33 c-0.72,1.85-1.07,3.99-1.07,6.44c0,3.77,0.85,6.77,2.56,9C1150.26,524.81,1152.76,525.92,1156.07,525.92"></path> <path class="st2" d="M1205.65,535.92c-3.31,0-6-0.56-8.08-1.68c-2.08-1.12-3.7-2.54-4.86-4.26c-1.16-1.72-1.99-3.51-2.48-5.37 c-0.49-1.86-0.79-3.56-0.9-5.09c-0.11-1.54-0.16-2.65-0.16-3.36v-23.66h10.77v19.91c0,0.96,0.05,2.19,0.16,3.69 c0.1,1.5,0.43,3,0.98,4.51c0.55,1.51,1.44,2.77,2.67,3.79c1.24,1.02,2.99,1.52,5.25,1.52c0.91,0,1.89-0.14,2.93-0.43 c1.04-0.29,2.02-0.84,2.93-1.66c0.91-0.82,1.66-2.03,2.24-3.63c0.59-1.6,0.88-3.7,0.88-6.3l6.09,2.89c0,3.33-0.68,6.45-2.03,9.37 c-1.35,2.91-3.39,5.27-6.11,7.07C1213.21,535.02,1209.79,535.92,1205.65,535.92 M1219.31,534.67v-13.98h-1.33v-28.18h10.7v42.16 H1219.31z"></path> <path class="st2" d="M1243.43,553.41v-60.9h9.37v28.89h1.33v32.01H1243.43z M1264.2,535.84c-4.19,0-7.69-0.97-10.5-2.93 c-2.81-1.95-4.93-4.61-6.34-7.96s-2.13-7.14-2.13-11.36c0-4.22,0.7-8,2.11-11.36c1.41-3.36,3.47-6.01,6.21-7.96 c2.73-1.95,6.1-2.93,10.11-2.93c4.03,0,7.55,0.96,10.54,2.89c2.99,1.93,5.32,4.56,6.97,7.9c1.65,3.34,2.48,7.16,2.48,11.46 c0,4.22-0.81,8-2.44,11.36c-1.63,3.36-3.9,6.01-6.81,7.96C1271.48,534.86,1268.08,535.84,1264.2,535.84 M1262.48,526.39 c2.29,0,4.16-0.57,5.62-1.72c1.46-1.15,2.54-2.69,3.24-4.63c0.7-1.94,1.05-4.09,1.05-6.46c0-2.34-0.36-4.48-1.09-6.42 c-0.73-1.94-1.85-3.49-3.38-4.65c-1.52-1.16-3.47-1.74-5.84-1.74c-2.21,0-4,0.53-5.37,1.6c-1.36,1.07-2.36,2.57-2.99,4.49 c-0.63,1.93-0.94,4.17-0.94,6.71c0,2.55,0.31,4.79,0.94,6.71c0.63,1.93,1.65,3.42,3.06,4.49 C1258.22,525.86,1260.12,526.39,1262.48,526.39"></path> </svg> 