<?xml version="1.0" encoding="UTF-8"?>
<svg id="Capa_1" data-name="Capa 1" xmlns="http://www.w3.org/2000/svg" viewBox="0 0 174.02 217.52">
  <defs>
    <style>
      .cls-1 {
        fill: #deaeac;
      }

      .cls-1, .cls-2 {
        stroke-width: 0px;
      }

      .cls-2 {
        fill: #6da5d5;
      }
    </style>
  </defs>
  <circle class="cls-1" cx="87.01" cy="174.02" r="10.88"/>
  <path class="cls-2" d="M87.01,108.76c-29.98,0-54.38-24.4-54.38-54.38S57.02,0,87.01,0s54.38,24.4,54.38,54.38-24.4,54.38-54.38,54.38ZM87.01,21.75c-17.99,0-32.63,14.64-32.63,32.63s14.64,32.63,32.63,32.63,32.63-14.64,32.63-32.63-14.64-32.63-32.63-32.63Z"/>
  <path class="cls-2" d="M163.14,217.52c-6.01,0-10.88-4.86-10.88-10.88,0-35.98-29.27-65.26-65.26-65.26s-65.26,29.27-65.26,65.26c0,6.01-4.86,10.88-10.88,10.88s-10.88-4.86-10.88-10.88c0-47.98,39.03-87.01,87.01-87.01s87.01,39.03,87.01,87.01c0,6.01-4.86,10.88-10.88,10.88Z"/>
</svg>