<?xml version="1.0" encoding="UTF-8"?>
<svg id="Capa_1" data-name="Capa 1" xmlns="http://www.w3.org/2000/svg" viewBox="0 0 164.52 133.48">
  <defs>
    <style>
      .cls-1 {
        stroke: #deaeac;
      }

      .cls-1, .cls-2 {
        fill: none;
        stroke-linecap: round;
        stroke-linejoin: round;
        stroke-width: 4.82px;
      }

      .cls-2 {
        stroke: #6da5d5;
      }
    </style>
  </defs>
  <g id="g7117">
    <g id="g7123">
      <path id="path7125" class="cls-2" d="M37.6,95.13l8.99-5.19c3.82-2.2,5.12-7.08,2.92-10.9-2.2-3.82-7.08-5.12-10.9-2.92l-8.99,5.19c-2.77,1.6-3.72,5.14-2.12,7.91l2.19,3.78c1.6,2.77,5.14,3.72,7.91,2.12Z"/>
    </g>
    <g id="g7127">
      <path id="path7129" class="cls-2" d="M46.81,108.24l6.11-3.53c3.82-2.2,5.12-7.08,2.92-10.9-2.2-3.82-7.08-5.12-10.9-2.92l-6.11,3.53c-2.77,1.6-3.72,5.14-2.12,7.92l2.19,3.78c1.6,2.77,5.14,3.72,7.91,2.12Z"/>
    </g>
    <g id="g7131">
      <path id="path7133" class="cls-2" d="M59.19,119.52l5.7-3.29c3.82-2.2,5.12-7.08,2.92-10.9-2.2-3.82-7.08-5.12-10.9-2.92l-5.7,3.29c-2.77,1.6-3.72,5.14-2.12,7.91l2.19,3.78c1.6,2.77,5.14,3.72,7.91,2.12Z"/>
    </g>
    <g id="g7135">
      <path id="path7137" class="cls-2" d="M72.86,130.05l4.05-2.34c3.82-2.2,5.12-7.08,2.92-10.9-2.2-3.82-7.08-5.12-10.9-2.92l-4.05,2.34c-2.77,1.6-3.72,5.14-2.12,7.91l2.19,3.78c1.6,2.77,5.14,3.72,7.92,2.12Z"/>
    </g>
    <g id="g7139">
      <path id="path7141" class="cls-2" d="M100.43,99.07l14.72,8.5"/>
    </g>
    <g id="g7143">
      <path id="path7145" class="cls-2" d="M108.4,85.25l17.7,10.22"/>
    </g>
    <g id="g7147">
      <path id="path7149" class="cls-2" d="M127.59,38.02l-13.9,8.01c-4.11,2.37-9.18,2.37-13.29,0l-10.94-6.31c-4.18-2.41-9.32-2.41-13.5,0l-21.09,12.18c-1.17.67-1.57,2.16-.89,3.33l.79,1.36c3.3,5.72,10.61,7.67,16.32,4.37,1.37-.79,2.59-1.49,3.44-1.99,1.47-.85,3.36-.61,4.52.63,1.87,2,4.54,3.26,7.5,3.26,3.3,0,6.23-1.56,8.11-3.98"/>
    </g>
    <g id="g7151">
      <path id="path7153" class="cls-2" d="M135.47,82.45l13.32-7.71"/>
    </g>
    <g id="g7155">
      <path id="path7157" class="cls-2" d="M96.5,55.08c-.35,1.4-.99,2.69-1.84,3.8"/>
    </g>
    <g id="g7159">
      <path id="path7161" class="cls-2" d="M92.4,112.86l7.4,4.27"/>
    </g>
    <g id="g7163">
      <path id="path7165" class="cls-2" d="M60.34,48.73c-3.2-.08-6.35-.96-9.15-2.58l-14.11-8.13"/>
    </g>
    <g id="g7167">
      <path id="path7169" class="cls-2" d="M106.15,65.52l-11.49-6.64"/>
    </g>
    <g id="g7171">
      <path id="path7173" class="cls-2" d="M80.12,124.25l1.09.58,9.46,5.46c2.81,1.62,6.4.62,7.97-2.22l2.11-3.83c1.53-2.76.56-6.24-2.17-7.82l-5.37-3.1,13.06,7.54c2.81,1.62,6.4.62,7.97-2.22l2.11-3.83c1.53-2.76.56-6.24-2.17-7.82l-7.97-4.6,11.82,6.83c2.77,1.6,6.32.65,7.91-2.12l2.19-3.78c1.6-2.77.65-6.31-2.12-7.91l-7.23-4.18,9.06,5.23c2.83,1.63,6.45.61,8-2.27l2.07-3.85c1.48-2.76.51-6.2-2.21-7.76l-19.62-11.33"/>
    </g>
    <g id="g7175">
      <path id="path7177" class="cls-2" d="M15.73,75l12.63,7.28"/>
    </g>
    <g id="g7179">
      <path id="path7181" class="cls-2" d="M144.02,66.74l5.6,9.7c.09.16.3.22.46.12l10.02-5.79"/>
    </g>
    <g id="g7183">
      <path id="path7185" class="cls-2" d="M136.75,30.33l-10.02,5.79c-.16.09-.22.3-.12.46l11.78,20.41"/>
    </g>
    <g id="g7187">
      <path id="path7189" class="cls-2" d="M15.72,51.21l12.05-20.88"/>
    </g>
    <g id="g7191">
      <path id="path7193" class="cls-2" d="M14.49,22.66L2.91,15.98c-.22-.13-.5.03-.5.29v53.16c0,.12.06.23.17.29l11.86,6.85c.16.09.37.04.46-.12l23.02-39.87c.09-.16.04-.37-.12-.46l-13.28-7.67"/>
    </g>
    <g id="g7195">
      <path id="path7197" class="cls-2" d="M136.75,30.33l24.74,42.84c.17.3.63.18.63-.17V16.27c0-.26-.28-.42-.5-.29l-24.86,14.35Z"/>
    </g>
    <g id="g7199">
      <path id="path7201" class="cls-1" d="M82.06,16.04l-2.82,1.41c-3.7,1.85-6.7,4.85-8.56,8.56l-1.41,2.82c-.13.26-.51.26-.64,0l-1.41-2.82c-1.85-3.7-4.85-6.71-8.56-8.56l-2.82-1.41c-.26-.13-.26-.51,0-.64l2.82-1.41c3.7-1.85,6.7-4.85,8.56-8.56l1.41-2.82c.13-.26.51-.26.64,0l1.41,2.82c1.85,3.7,4.85,6.71,8.56,8.56l2.82,1.41c.26.13.26.51,0,.64Z"/>
    </g>
    <g id="g7203">
      <path id="path7205" class="cls-1" d="M113.15,22.64l-2.35,1.18c-3.09,1.54-5.59,4.04-7.13,7.13l-1.18,2.35c-.11.22-.42.22-.53,0l-1.18-2.35c-1.54-3.09-4.04-5.59-7.13-7.13l-2.35-1.18c-.22-.11-.22-.42,0-.53l2.35-1.18c3.09-1.54,5.59-4.04,7.13-7.13l1.18-2.35c.11-.22.42-.22.53,0l1.18,2.35c1.54,3.09,4.04,5.59,7.13,7.13l2.35,1.18c.22.11.22.42,0,.53Z"/>
    </g>
  </g>
</svg>