<?xml version="1.0" encoding="UTF-8"?>
<svg id="Capa_1" data-name="Capa 1" xmlns="http://www.w3.org/2000/svg" viewBox="0 0 60.68 60.68">
  <defs>
    <style>
      .cls-1 {
        fill: #fff;
        stroke-width: 0px;
      }
    </style>
  </defs>
  <path class="cls-1" d="M31.33,13.73c-8.82,0-16,7.17-16,15.99,0,3.02.84,5.96,2.45,8.51l.38.6-1.62,5.9,6.05-1.59.58.35c2.46,1.46,5.27,2.23,8.14,2.23h0c8.82,0,15.99-7.17,16-15.99,0-4.27-1.66-8.29-4.68-11.31-3.02-3.02-7.04-4.69-11.31-4.69ZM40.74,36.59c-.4,1.12-2.32,2.15-3.25,2.29-.83.12-1.88.18-3.03-.19-.7-.22-1.59-.52-2.74-1.01-4.82-2.08-7.98-6.94-8.22-7.26-.24-.32-1.96-2.61-1.96-4.97s1.24-3.53,1.68-4.01c.44-.48.96-.6,1.28-.6s.64,0,.92.02c.3.01.69-.11,1.08.83.4.96,1.36,3.33,1.48,3.57.12.24.2.52.04.84-.16.32-.24.52-.48.8-.24.28-.51.63-.72.84-.24.24-.49.5-.21.98.28.48,1.25,2.06,2.68,3.33,1.84,1.64,3.39,2.15,3.87,2.39.48.24.76.2,1.04-.12.28-.32,1.2-1.4,1.52-1.89.32-.48.64-.4,1.08-.24.44.16,2.81,1.32,3.29,1.56.48.24.8.36.92.56.12.2.12,1.16-.28,2.29Z"/>
  <path class="cls-1" d="M30.34,0C13.58,0,0,13.58,0,30.34s13.58,30.34,30.34,30.34,30.34-13.58,30.34-30.34S47.1,0,30.34,0ZM31.32,48.97h0c-3.22,0-6.39-.81-9.2-2.34l-10.2,2.68,2.73-9.97c-1.68-2.92-2.57-6.23-2.57-9.62,0-10.61,8.64-19.24,19.25-19.24,5.15,0,9.98,2.01,13.62,5.64,3.63,3.64,5.63,8.47,5.63,13.61,0,10.61-8.64,19.24-19.25,19.24Z"/>
</svg>